<svg width="49" height="47" version="1.1" xmlns="http://www.w3.org/2000/svg" xmlns:xlink="http://www.w3.org/1999/xlink"><defs><path d="M94.56 94.585l-10.267 5.311a2 2 0 0 1-2.89-2.12l1.953-11.201-8.241-7.905a2 2 0 0 1 1.101-3.423l11.42-1.633 5.137-10.242a2 2 0 0 1 3.575 0l5.137 10.242 11.42 1.633a2 2 0 0 1 1.101 3.423l-8.241 7.905 1.952 11.201a2 2 0 0 1-2.889 2.12L94.56 94.585z" id="a"/></defs><g stroke="none" stroke-width="1" fill="none" fill-rule="evenodd"><g><g><g transform="translate(-70 -58)"><use fill="#FFC800" fill-rule="evenodd" xlink:href="#a"/><path stroke="#000" stroke-width="4" d="M94.56 96.836l-9.348 4.837a4 4 0 0 1-5.779-4.24l1.77-10.152-7.473-7.168a4 4 0 0 1 2.203-6.846l10.384-1.485 4.668-9.307a4 4 0 0 1 7.15 0l4.669 9.307 10.384 1.485a4 4 0 0 1 2.202 6.846l-7.472 7.168 1.77 10.152a4 4 0 0 1-5.779 4.24l-9.349-4.837z"/></g></g></g></g></svg>